<?xml version="1.0" encoding="utf-8"?>
<svg id="レイヤー_1" xmlns="http://www.w3.org/2000/svg" width="960" height="540" viewBox="0 0 960 540">
<path fill="#990000" d="M697.6,338.4c-6.7,2.8-13.4,4.2-20.2,4.2c-10.7,0-20.4-1.9-28.9-5.6c-8.6-3.7-15.8-8.9-21.7-15.4c-5.9-6.6-10.4-14.3-13.5-23.1c-3.1-8.8-4.7-18.4-4.7-28.6c0-10.5,1.6-20.2,4.7-29.2c3.1-9,7.6-16.8,13.5-23.5c5.9-6.7,13.1-11.9,21.7-15.7c8.6-3.8,18.2-5.7,28.9-5.7c7.2,0,14.2,1.1,20.9,3.2c6.7,2.2,12.8,5.4,18.2,9.6c5.4,4.2,9.9,9.4,13.4,15.5c3.5,6.2,5.7,13.2,6.5,21.2h-29.4c-1.8-7.8-5.4-13.7-10.6-17.7c-5.2-3.9-11.6-5.9-19-5.9c-6.9,0-12.8,1.3-17.7,4c-4.8,2.7-8.8,6.3-11.8,10.8c-3,4.5-5.2,9.7-6.6,15.4c-1.4,5.8-2.1,11.7-2.1,17.9c0,5.9,0.7,11.6,2.1,17.2c1.4,5.6,3.6,10.6,6.6,15c3,4.5,6.9,8,11.8,10.7c4.8,2.7,10.7,4,17.7,4c10.2,0,18.1-2.6,23.7-7.7c5.6-5.2,8.8-12.6,9.7-22.4h-31v-23.1h58.8v75.8H719l-3.1-15.9C710.3,330.7,704.2,335.6,697.6,338.4z"/>
<path fill="#990000" d="M788.5,199.3v114.1h68.3v26h-99V199.3H788.5z"/>
<path fill="#990000" d="M643.1,356.8c-47,28.6-117.5,44.9-196.1,44.9c-141.6,0-256.4-59-256.4-131.7c0-72.7,114.8-131.7,256.4-131.7c78.9,0,149.6,16.6,196.6,45.4c-51.3-48.2-143.4-82.1-248.6-82.1c-161.2,0-291.8,75.4-291.9,168.4c0,93,130.6,168.5,291.8,168.5C499.9,438.5,591.7,404.7,643.1,356.8z"/>
<path fill="#990000" stroke="#990000" stroke-width="5.5" d="M278,339.4h-21.4l-39.2-149.1h22l28.1,121.3h0.4l33.8-121.3h22.2l33.8,121.3h0.4l28-121.3h23.5L369,339.4h-21.5l-34.4-123.5h-0.4L278,339.4z"/>
<path fill="#990000" stroke="#990000" stroke-width="5" d="M487.4,308.5c-0.6,4.7-5.1,18.7-17.7,27c-4.6,3-11,6.8-27,6.8c-28,0-44.3-20.9-44.3-49.4c0-30.6,14.5-54.9,47.4-54.9c28.8,0,42.9,22.6,42.9,57.5h-72.4c0,20.6,9.4,32.5,28.7,32.5c15.8,0,25.1-12.1,25.6-19.4H487.4z M471.4,282.3c-1-15.3-7.2-29.4-27.8-29.4c-15.4,0-27.2,14.2-27.2,29.4H471.4z"/>
<path fill="#990000" stroke="#990000" stroke-width="5" d="M504.1,339.5V204.1h16.8v49.2h0.4c7.2-10.4,17.2-15.1,28.8-15.3c26.5,0,41.8,21.5,41.8,49.2c0,23.6-10.2,55.1-44.1,55.1c-17,0-24-9.6-27.4-15.1h-0.4v12.3H504.1L504.1,339.5z M547,252.9c-24.2,0-26.9,25.8-26.9,41.9c0,26.2,16.6,33.2,27.2,33.2c18.3,0,26.9-16.4,26.9-38.1C574.2,277.3,572.9,252.9,547,252.9z"/>
</svg>
