<svg xmlns="http://www.w3.org/2000/svg" width="128" height="128" viewBox="0 0 128 128" fill="#292b33"><path d="M126.217 78.258l.092.104-13.189-8.893c-.599-.404-.974-.658-1.209-.858l.09.103-13.188-8.894c-.6-.403-.975-.658-1.209-.857l.092.104-13.844-9.334-4.322 2.917 48.47 32.686v-5.833l-.574-.388c-.599-.402-.974-.657-1.209-.857zM49.303.418l.067.056.066.06.04.049.067.091.007.009.01.022.08.187.014.045.03.222.001.006-.003.024-.02.173-.014.053-.052.141-.026.055-.018.037-.075.101-.023.031-.154.136-.009.008-6.03 4.065 5.574 3.76c.799-.54 6.697-4.518 6.697-4.518l.003-.002 6.027-4.064-1.73-1.165h-11.148l.607.409.012.009zM127.219 16.396l-6.028 4.065 6.81 4.592v-3.441l-1.69-1.14c-.246-.165-.394-.451-.394-.757 0-.308.147-.593.394-.759l1.69-1.14v-1.946l-.779.525-.003.001zM65.211 62.29l5.574 3.758c.799-.54 6.697-4.517 6.697-4.517.278-.187.633-.187.912 0l6.035 4.071c.598.402.975.658 1.209.857l-.092-.104 7.155 4.824-.052-.028c.122.071.23.17.311.304.252.418.136.973-.259 1.24l-7.155 4.824-7.153 4.824-7.153 4.823-7.154 4.823-7.154 4.824-7.154 4.824-.047.025-.09.049-.075.024-.081.024-.083.01-.081.006-.081-.006-.082-.01-.083-.024-.075-.024-.089-.049-.047-.025-14.304-9.647-.011-.008-.077-.065-.056-.05-.048-.061-.06-.08-.009-.012-.011-.025-.077-.179-.015-.05-.03-.22v-.008l.003-.028.019-.165.016-.059.048-.136.029-.061.017-.035.07-.094.029-.038.153-.136.009-.008 6.03-4.065c-1.477-.995-4.909-3.31-5.574-3.759l-6.697 4.517-6.03 4.066c2.013 1.358 12.065 8.136 12.065 8.136.598.402.974.658 1.208.857l-.09-.104 13.189 8.895c.597.402.974.658 1.208.857l-.091-.104 13.189 8.894c.598.403.974.658 1.208.856l-.091-.103 6.698 4.517 6.697-4.517h.001l6.028-4.065-5.572-3.76c-.801.539-6.697 4.517-6.697 4.517l-.049.024-.089.049-.075.025-.082.023-.081.012-.081.006-.081-.006-.082-.012-.081-.023-.075-.025-.091-.049-.047-.024-14.306-9.647-.01-.01-.078-.063-.055-.051-.049-.06-.059-.08-.009-.012-.024-.052-.044-.093-.023-.077-.023-.09-.01-.081-.006-.093.005-.076.012-.097.019-.074.027-.09.039-.082.029-.061.01-.014.054-.072.053-.067.049-.044.084-.07.01-.008 7.153-4.824h.001l7.153-4.824 7.152-4.824.002-.001 7.153-4.822h.001l7.152-4.823.002-.002 7.151-4.823.157-.083.006-.001.172-.046.056-.004.126-.002.065.009.114.027.063.021.117.06.037.019 14.307 9.648.013.011.065.055.066.06.04.05.067.091.007.009.01.021.08.188.015.044.028.224v.006l-.002.023-.021.173-.014.053-.052.143-.026.055-.018.036-.074.101-.022.031-.154.136-.009.008-6.03 4.066 5.573 3.759 6.697-4.518.004-.001c.016-.011 2.191-1.479 4.039-2.724l-.005-.006 1.985-1.339c-1.686-1.137-47.688-32.159-48.486-32.699-.796.542-11.126 7.508-12.724 8.586zM120.067 54.241l-7.154 4.825-.047.025-.09.047-.075.026-.081.024-.082.01-.081.006-.08-.006-.082-.01-.082-.024-.075-.026-.09-.048-.048-.024-14.305-9.648-.012-.01-.078-.064-.055-.049-.049-.061-.06-.08-.008-.012-.011-.025-.076-.181-.016-.049-.029-.22-.002-.007.004-.029.02-.165.015-.059.049-.135.03-.061.017-.036.069-.093.029-.039.152-.135.01-.007 6.029-4.066-5.574-3.759-3.551 2.394.002.003-9.172 6.191c2.031 1.369 12.059 8.131 12.059 8.131.598.402.975.658 1.209.856l-.092-.103 13.189 8.894c.598.403.975.658 1.209.856l-.091-.103 13.189 8.894c.598.404.974.658 1.208.857l-.091-.104.78.526v-7.518l-8.846-5.965-.01-.009-.078-.065-.055-.049-.049-.061-.06-.08-.009-.012-.024-.052-.044-.093-.023-.077-.023-.09-.01-.08-.006-.093.005-.077.012-.097.02-.075.027-.09.039-.082.028-.061.01-.014.053-.072.055-.067.05-.044.083-.07.011-.009 7.153-4.823.001-.001 1.69-1.14v-7.517l-.779.525-7.151 4.831zM43.019 1.069c0 .308-.148.593-.393.758l-6.03 4.067 12.727 8.583 6.698-4.518 7.153-4.824 7.154-4.824.463-.311h-7.8l.606.409c.246.165.393.45.393.757s-.147.593-.393.758l-7.153 4.824-.003.001-7.151 4.822c-.278.189-.634.189-.913 0l-7.153-4.823c-.245-.166-.393-.451-.393-.758s.147-.593.393-.758l6.03-4.066-1.729-1.166h-3.361l.462.312c.244.165.393.451.393.757zM127.219 59.067l-6.028 4.065 6.81 4.592v-3.441l-1.69-1.14c-.246-.165-.394-.45-.394-.758 0-.306.147-.592.394-.758l1.69-1.14v-1.947l-.779.525-.003.002zM22.289 5.895c2.013 1.358 12.065 8.135 12.065 8.135.598.403.974.659 1.208.857l-.09-.104 13.189 8.894c.597.403.974.658 1.208.858l-.091-.103 13.189 8.893c.598.403.974.659 1.208.858l-.091-.104 6.698 4.516 6.697-4.516h.001l6.028-4.066c-1.476-.995-4.907-3.31-5.572-3.759l-6.697 4.516-.049.026-.089.047-.075.025-.082.023-.081.012-.081.006-.081-.006-.082-.012-.081-.023-.075-.025-.091-.048-.047-.025-14.305-9.646-.01-.01-.078-.064-.055-.05-.049-.06-.059-.08-.009-.012-.024-.052-.044-.093-.023-.077-.023-.09-.01-.081-.006-.093.005-.077.012-.096.019-.075.027-.09.039-.083.029-.06.01-.013.054-.072.053-.068.049-.045.084-.069.01-.008 7.153-4.825h.001l7.153-4.824v-.001l7.152-4.823h.002l7.153-4.824h.001l.462-.309h-11.147l-2.711 1.828-7.154 4.824-7.154 4.825-7.154 4.823-.047.024-.09.048-.075.026-.081.023-.083.011-.081.006-.081-.006-.082-.011-.083-.023-.075-.026-.089-.048-.047-.024-14.304-9.649-.011-.009-.077-.065-.056-.049-.048-.061-.06-.079-.009-.012-.011-.026-.077-.179-.015-.051-.03-.219v-.008l.003-.029.019-.165.016-.058.048-.135.029-.062.017-.035.07-.094.029-.038.153-.135.009-.009 6.03-4.066-1.586-1.067h-7.975l-2.71 1.828s-4.433 2.989-6.029 4.067zM65.211 19.62l5.574 3.759c.799-.54 6.697-4.517 6.697-4.517.278-.187.633-.187.912 0l6.035 4.071c.598.403.975.657 1.209.856l-.092-.104 7.155 4.825-.052-.028c.122.071.23.17.311.302.252.419.136.975-.259 1.242l-7.155 4.823-7.153 4.825-7.153 4.823-7.154 4.824-7.154 4.825-7.154 4.824-.047.025-.09.048-.075.025-.081.024-.083.01-.081.005-.081-.005-.082-.01-.083-.024-.075-.025-.089-.049-.047-.024-14.304-9.649-.011-.009-.077-.064-.056-.05-.048-.061-.06-.08-.009-.011-.011-.025-.077-.18-.015-.049-.03-.219v-.008l.003-.029.019-.165.016-.058.048-.136.029-.061.017-.035.07-.094.029-.038.153-.135.009-.009s4.432-2.989 6.03-4.065l-5.574-3.759-6.697 4.516-6.03 4.066c2.013 1.359 12.065 8.137 12.065 8.137.598.402.974.658 1.208.857l-.09-.103 13.189 8.894c.597.402.974.658 1.208.856l-.091-.102 13.189 8.894c.598.402.974.657 1.208.857l-.091-.104s5.899 3.977 6.698 4.517l6.697-4.517.001-.002c.013-.008 4.435-2.988 6.028-4.064l-5.572-3.758c-.801.539-6.697 4.516-6.697 4.516l-.049.025-.089.047-.075.027-.082.023-.081.009-.081.007-.081-.007-.082-.009-.081-.023-.075-.027-.091-.048-.047-.024-14.304-9.648-.01-.01-.078-.065-.055-.048-.049-.062-.059-.079-.009-.01-.024-.053-.044-.094-.023-.077-.023-.089-.01-.081-.006-.093.005-.077.012-.096.019-.076.027-.09.039-.08.029-.062.01-.013.054-.072.053-.068.049-.044.084-.07.01-.008 7.153-4.824.001-.001 7.153-4.823v-.001l7.152-4.824h.002l7.153-4.824.001-.001 7.152-4.822.002-.001 7.151-4.824.157-.083v.002h.006l.172-.046.056-.004.126-.002.065.009.114.026.063.023.117.059.037.019 14.307 9.648.013.011.065.055.066.059.04.051.067.089.007.011.01.021.08.187.015.045.028.222v.006l-.002.024-.021.173-.014.053-.052.141-.026.056-.018.038-.074.1-.022.03-.154.138-.009.006-6.03 4.066 5.573 3.759 6.697-4.517.004-.001c.016-.012 2.191-1.479 4.039-2.724l-.005-.006 1.985-1.339c-1.686-1.136-47.688-32.159-48.486-32.698-.798.539-11.128 7.505-12.726 8.582zM.339 105.056l5.574 3.758 6.697-4.517c.278-.188.634-.188.913 0l6.035 4.07c.598.403.974.658 1.209.857l-.091-.104 7.154 4.824-.051-.027c.122.07.231.17.311.303.252.418.136.974-.26 1.24l-7.154 4.824-7.154 4.824-4.286 2.892h11.146l6.535-4.406.001-.002 7.153-4.822.157-.083h.001l.005-.002.172-.045.056-.004.126-.002.065.008.115.027.062.022.118.059.036.02 13.69 9.23h11.144c-8.663-5.843-46.031-31.042-46.75-31.527-.8.54-11.13 7.506-12.729 8.583zM99.402 120.494l-6.7 4.52h-.002l-4.429 2.986h2.887l6.538-4.408c.277-.187.633-.187.91 0l6.537 4.408h5.384l-10.466-7.058-.659-.448zM94.6 127.811l.002.002-.278.187h7.657l-3.831-2.584c-.39.264-2.004 1.354-3.55 2.395zM65.211 104.959l5.574 3.758 6.697-4.516c.278-.188.633-.188.912 0l6.035 4.07c.598.402.975.657 1.209.857l-.092-.104 7.155 4.823-.052-.026c.122.07.23.169.311.302.252.419.136.976-.259 1.242l-7.155 4.823-7.153 4.825-4.429 2.987h11.147l6.678-4.503.002-.001 7.151-4.823.157-.083.006-.002.172-.045.056-.004.126-.002.065.009.114.026.063.021.117.06.037.02 13.833 9.327h11.146c-8.391-5.658-46.171-31.136-46.894-31.624-.801.54-11.131 7.507-12.729 8.583zM126.217 120.928l.092.104-13.189-8.895c-.599-.402-.974-.658-1.209-.857l.09.104-13.188-8.895c-.6-.402-.975-.658-1.209-.856l.092.104-13.844-9.334-4.322 2.917 48.463 32.68h.007v-5.828l-.574-.387c-.599-.402-.974-.658-1.209-.857zM114.175.323l.065.055.066.059.04.05.067.09.007.01.01.022.08.187.015.045.028.222v.006l-.002.024-.021.173-.014.053-.052.142-.026.056-.018.037-.074.1-.022.031-.154.136-.009.007s-4.434 2.989-6.03 4.067l5.573 3.758 6.697-4.517.004-.001c.016-.012 2.191-1.479 4.039-2.725l-.005-.006 1.985-1.339-1.58-1.065h-11.146l.463.312.014.011zM120.067 96.911l-7.154 4.824-.047.025-.09.048-.075.025-.081.023-.082.011-.081.006-.08-.006-.082-.011-.082-.023-.075-.025-.09-.049-.048-.024-14.305-9.649-.012-.008-.078-.064-.055-.049-.049-.062-.06-.079-.008-.012-.011-.025-.076-.18-.016-.051-.029-.221-.002-.006.004-.029.02-.165.015-.058.049-.135.03-.063.017-.035.069-.093.029-.038.152-.135.01-.008 6.029-4.067-5.574-3.757-3.551 2.394.002.002-9.172 6.19c2.031 1.369 12.059 8.132 12.059 8.132.598.403.975.657 1.209.857l-.092-.104 13.189 8.894c.598.402.975.658 1.209.857l-.091-.104 13.189 8.895c.598.402.974.658 1.208.857l-.091-.104.78.526v-7.518l-8.846-5.966-.01-.008-.078-.065-.055-.05-.049-.061-.06-.078-.009-.012-.024-.053-.044-.093-.023-.077-.023-.09-.01-.082-.006-.092.005-.076.012-.097.02-.075.027-.09.039-.082.028-.06.01-.013.053-.072.055-.068.05-.045.083-.068.011-.008 7.153-4.825h.001l1.69-1.141v-7.519l-.779.525-7.151 4.832zM106.152 1.167c0 .307-.146.593-.393.758l-6.029 4.065 12.727 8.582 6.698-4.516 7.153-4.824 1.692-1.14v-1.943l-2.494 1.684-.004-.005-4.187 2.823-.003.002-7.15 4.823c-.277.188-.635.188-.913 0l-7.153-4.825c-.244-.165-.393-.451-.393-.757 0-.308.148-.593.393-.759l6.029-4.066-1.585-1.069h-5.385l.604.408c.247.165.393.451.393.759zM31.041 128h7.95c-1.585-1.068-3.496-2.356-3.975-2.681l-3.975 2.681zM34.53 120.591l-6.7 4.519h-.002l-4.285 2.89h4.338l6.679-4.504c.278-.188.634-.188.912 0l6.678 4.504h3.36l-10.322-6.961-.658-.448zM97.488 14.126c.598.403.975.659 1.209.858l-.092-.104 13.189 8.895c.598.403.975.658 1.209.857l-.091-.104 13.189 8.894c.598.403.974.658 1.208.856l-.091-.103.78.526v-7.518l-8.846-5.966-.01-.008-.078-.064-.055-.051-.049-.06-.06-.08-.009-.011-.024-.052-.044-.094-.023-.076-.023-.09-.01-.082-.006-.092.005-.076.012-.097.02-.074.027-.091.039-.082.028-.061.01-.014.053-.071.055-.068.05-.044.083-.071.011-.007 7.153-4.825h.001l1.69-1.14v-7.513l-.779.525-7.153 4.823-7.154 4.824-.047.026-.09.049-.075.024-.081.024-.082.011-.081.006-.08-.006-.082-.011-.082-.024-.075-.024-.09-.049-.048-.026-14.304-9.646-.012-.01-.078-.064-.055-.051-.049-.06-.06-.079-.008-.012-.011-.025-.076-.18-.016-.049-.029-.22-.002-.007.004-.029.02-.166.015-.058.049-.135.03-.061.017-.035.069-.095.029-.038.152-.135.01-.008 6.029-4.066-1.73-1.167h-7.684l-8.879 5.996c2.031 1.37 12.058 8.131 12.058 8.131zM0 79.507v5.833l4.324-2.917zM13.524 94.648l49.456 33.352h7.822l6.679-4.503 7.154-4.824 6.029-4.065-4.911-3.314c-.598-.402-.975-.656-1.209-.855l.091.104s-5.897-3.977-6.696-4.518c-.801.541-6.699 4.518-6.699 4.518-.277.188-.633.188-.912 0l-7.153-4.824c-.244-.166-.393-.451-.393-.758 0-.309.149-.594.393-.758l14.308-9.648 5.904-3.98 7.153-4.825 7.155-4.823c.277-.188.633-.188.91 0l7.154 4.823c.246.165.393.45.393.758s-.146.593-.393.759l-6.029 4.063 12.727 8.582 6.698-4.518 7.153-4.822 1.692-1.14v-1.943l-2.494 1.684-.004-.004-4.187 2.822-.003.002-7.15 4.822c-.277.188-.635.188-.913 0l-7.153-4.824c-.244-.166-.393-.45-.393-.757 0-.308.148-.594.393-.759l6.029-4.065-12.064-8.136-.658-.448-6.7 4.519h-.002l-7.153 4.823v.001l-7.153 4.822-.001.002-7.152 4.822h-.002l-7.152 4.824-.001.001-6.029 4.065 12.727 8.583 6.697-4.517c.278-.188.635-.188.912 0l7.154 4.824c.244.164.393.45.393.758 0 .307-.148.592-.393.757l-7.154 4.824h-.001l-7.151 4.825c-.279.188-.635.188-.914 0l-6.035-4.07c-.598-.404-.975-.66-1.209-.858l.091.104-13.188-8.894c-.598-.403-.975-.658-1.209-.857l.091.104-13.188-8.895c-.598-.403-.975-.658-1.209-.856l.091.103-14.311-9.65c-.245-.166-.393-.45-.393-.757 0-.308.148-.594.393-.759l7.154-4.823 7.154-4.825c.278-.187.634-.187.912 0l7.154 4.825c.245.165.393.452.393.758s-.148.593-.393.758l-6.03 4.066 12.727 8.582 6.698-4.517 7.153-4.824 7.154-4.823 7.153-4.823 7.154-4.825 6.029-4.065-4.911-3.313c-.598-.403-.975-.657-1.209-.857l.091.104s-5.897-3.977-6.696-4.517l-6.699 4.517c-.277.188-.633.188-.912 0l-7.153-4.825c-.244-.165-.393-.45-.393-.757s.149-.593.393-.759l14.308-9.647 5.904-3.981 7.153-4.825 7.155-4.825c.277-.187.633-.187.91 0l7.154 4.825c.246.166.393.452.393.759 0 .306-.146.592-.393.757l-6.029 4.066 12.727 8.583 6.698-4.517 7.153-4.824 1.692-1.14v-1.943l-2.494 1.684-.004-.005-4.187 2.823-.003.001-7.15 4.824c-.277.187-.635.187-.913 0l-7.153-4.825c-.244-.165-.393-.451-.393-.758 0-.306.148-.592.393-.758l6.029-4.065-12.064-8.136-.658-.448-6.7 4.518-.002.001-7.153 4.822v.002l-7.153 4.822h-.001l-7.152 4.825h-.002l-7.152 4.824-.001.001-6.029 4.064 12.727 8.584 6.697-4.517c.278-.189.635-.189.912 0l7.154 4.823c.244.165.393.449.393.758 0 .307-.148.592-.393.758l-7.154 4.824h-.001l-7.151 4.823c-.279.188-.635.188-.914 0l-6.035-4.069c-.598-.403-.975-.658-1.209-.857l.091.104-13.188-8.895c-.598-.403-.975-.658-1.209-.857l.091.104-13.188-8.894c-.598-.402-.975-.658-1.209-.858l.091.104-14.307-9.648c-.245-.165-.393-.451-.393-.758 0-.306.148-.592.393-.758l7.154-4.824 7.154-4.823c.278-.188.634-.188.912 0l7.154 4.823c.245.165.393.451.393.758s-.148.593-.393.757l-6.03 4.066 12.727 8.583 6.698-4.516 7.153-4.825 7.154-4.824 7.153-4.823 7.154-4.825 6.029-4.066-4.911-3.312c-.598-.403-.975-.658-1.209-.856l.091.103s-5.897-3.977-6.696-4.515c-.801.539-6.699 4.515-6.699 4.515-.277.188-.633.188-.912 0l-7.153-4.823c-.244-.165-.393-.451-.393-.758s.149-.593.393-.758l14.308-9.648 5.904-3.981 7.153-4.824.602-.41h-2.888l-2.711 1.828v.001l-7.153 4.823-.001.001-7.152 4.824h-.002l-7.153 4.823h-.001l-6.029 4.066 12.727 8.583 6.697-4.517c.278-.188.635-.188.912 0l7.154 4.824c.244.166.393.451.393.758 0 .306-.148.592-.393.757l-7.154 4.825h-.001l-7.151 4.823c-.279.188-.635.188-.914 0l-6.035-4.069c-.598-.402-.975-.657-1.209-.857l.091.103-13.188-8.894c-.598-.402-.975-.658-1.209-.857l.091.103-13.188-8.894c-.598-.403-.975-.658-1.209-.857l.091.104-14.309-9.65c-.245-.165-.393-.451-.393-.757 0-.308.148-.593.393-.759l7.154-4.824.462-.311h-4.338l-2.854 1.925-.001.001-7.152 4.823h-.002l-7.152 4.823-.001.001-6.368 4.293v1.948l12.611-8.503c.278-.188.635-.188.913 0l50.073 33.768c.246.165.393.451.393.758s-.147.592-.393.757l-7.153 4.825-.003.001-7.151 4.822c-.278.188-.634.188-.913 0l-7.153-4.823c-.245-.165-.393-.451-.393-.758 0-.308.147-.593.393-.758l6.03-4.066-12.065-8.137-.659-.448-6.7 4.519h-.002l-7.152 4.822-.001.001-7.152 4.824h-.002l-7.152 4.823-.001.001-6.368 4.295v1.947l12.611-8.503c.278-.188.635-.188.913 0l50.073 33.767c.246.165.393.45.393.759 0 .308-.147.594-.393.758l-7.153 4.822-.003.002-7.151 4.823c-.278.188-.634.188-.913 0l-7.153-4.825c-.245-.164-.393-.45-.393-.756 0-.308.147-.594.393-.758l6.03-4.067-12.065-8.136-.659-.448-6.7 4.519-.002.001-7.152 4.823h-.001l-7.152 4.822-.002.002-7.152 4.823-.001.001-6.368 4.294v1.946l12.611-8.505c.278-.186.635-.186.913 0zM12.611 38.254l7.153-4.823 6.03-4.067-4.912-3.313c-.597-.402-.973-.657-1.208-.856l.09.103-6.697-4.517c-.801.539-6.698 4.517-6.698 4.517-.278.188-.634.188-.912 0l-5.457-3.68v3.44l5.912 3.986 6.697-4.516c.279-.188.635-.188.913 0l7.154 4.823c.244.166.392.452.392.758 0 .307-.148.593-.392.758l-7.154 4.824h-.001l-7.153 4.824-.002.001-6.366 4.298v1.943l5.457-3.679 7.154-4.824zM126.217 35.589l.092.104-13.189-8.895c-.599-.403-.974-.658-1.209-.856l.09.103-13.188-8.895c-.6-.403-.975-.658-1.209-.857l.092.102-13.844-9.333-4.322 2.918 48.47 32.686v-5.833l-.574-.387c-.599-.403-.974-.658-1.209-.857zM4.324 125.092l-4.324-2.914v5.822h.013zM5.458 52.726l7.152-4.823.002-.001 7.152-4.823.001-.001 7.152-4.824.001-.001 7.153-4.822.157-.083h.001l.005-.002.172-.044.056-.004.126-.002.065.008.115.027.062.021.118.06.036.02 14.308 9.648.012.011.067.054.066.06.04.049.067.09.007.011.01.021.08.187.014.046.03.222.001.006-.003.024-.02.172-.014.052-.052.143-.026.054-.018.038-.075.1-.023.031-.154.136-.009.008-6.03 4.067c1.476.995 4.908 3.311 5.574 3.758l6.697-4.516.003-.002 6.027-4.064c-1.597-1.077-47.694-32.164-48.494-32.703-.8.539-11.13 7.505-12.728 8.583 1.477.995 4.909 3.309 5.574 3.758l6.697-4.517c.278-.187.634-.187.913 0l6.035 4.071c.598.402.974.657 1.209.856l-.091-.104 7.154 4.825-.051-.027c.122.07.231.17.311.303.252.418.136.974-.26 1.241l-7.154 4.824-7.154 4.825-7.154 4.822-6.37 4.294v7.517l5.456-3.679.002-.001zM12.611 80.924l7.153-4.824 6.03-4.066-4.912-3.312c-.597-.403-.973-.659-1.208-.856l.09.103s-5.898-3.978-6.697-4.516c-.801.539-6.698 4.516-6.698 4.516-.278.187-.634.187-.912 0l-5.457-3.681v3.439l5.912 3.987 6.697-4.517c.279-.188.635-.188.913 0l7.154 4.823c.244.165.392.451.392.758 0 .308-.148.594-.392.758l-7.154 4.824-.001.001-7.153 4.823-.002.001-6.366 4.299v1.943l5.457-3.681 7.154-4.822zM12.609 109.867c.279-.188.635-.188.913 0l7.154 4.824c.244.166.392.451.392.758s-.148.594-.392.758l-7.154 4.824h-.001l-7.153 4.823-.002.002-3.176 2.144h2.884l6.537-4.406 7.153-4.824 6.03-4.066-4.912-3.313c-.597-.402-.973-.657-1.208-.857l.09.104-6.697-4.516c-.801.539-6.698 4.516-6.698 4.516-.278.188-.634.188-.912 0l-5.457-3.681v3.441l5.912 3.986 6.697-4.517zM12.556 119.542l.005.006.048-.032h.002l6.029-4.066-5.574-3.758c-.8.538-6.697 4.516-6.697 4.516l-.048.025-.089.049-.075.025-.082.022-.083.011-.081.007-.081-.007-.082-.011-.083-.022-.073-.025-.091-.049-.046-.025-5.455-3.68v7.517l5.904 3.982 6.652-4.485zM5.458 95.395l7.152-4.822.002-.002 7.152-4.823h.001l7.152-4.823.001-.001 7.153-4.823.157-.083h.001l.005-.002.172-.044.056-.006h.126l.065.008.115.027.062.021.118.062.036.018 14.308 9.647.012.011.067.055.066.06.04.05.067.091.007.01.01.022.08.186.014.046.03.222.001.006-.003.025-.02.172-.014.053-.052.142-.026.056-.018.037-.075.1-.023.031-.154.137-.009.008-6.03 4.066c1.476.994 4.908 3.309 5.574 3.758l6.697-4.516.003-.002c.023-.018 4.435-2.991 6.027-4.064-1.597-1.078-47.694-32.163-48.494-32.703-.8.54-11.13 7.505-12.728 8.582 1.477.996 4.909 3.311 5.574 3.758.8-.538 6.697-4.516 6.697-4.516.278-.186.634-.186.913 0l6.035 4.07c.598.404.974.658 1.209.857l-.091-.103 7.154 4.823-.051-.027c.122.071.231.17.311.303.252.418.136.975-.26 1.242l-7.154 4.824-7.154 4.822-7.154 4.824-6.37 4.29v7.52l5.456-3.682h.002zM127.219 101.735l-6.028 4.065 6.81 4.593v-3.441l-1.69-1.14c-.246-.164-.394-.45-.394-.757 0-.308.147-.594.394-.759l1.69-1.14v-1.947l-.779.525-.003.001zM12.556 76.873l.005.006.048-.033h.002c.012-.01 4.434-2.99 6.029-4.066-1.477-.995-4.909-3.309-5.574-3.758l-6.697 4.516-.048.027-.089.047-.075.025-.082.023-.083.01-.081.006-.081-.006-.082-.01-.083-.023-.073-.025-.091-.049-.046-.025-5.455-3.68v7.519l5.904 3.98 6.652-4.484zM0 36.837v5.832l4.324-2.916zM5.458 10.056l7.152-4.824.002-.001 7.152-4.822.001-.001.605-.408h-11.146l-2.855 1.925-6.369 4.294v7.518l5.456-3.681zM12.556 34.203l.005.005.048-.032.002-.001 6.029-4.065c-1.477-.996-4.909-3.309-5.574-3.759l-6.697 4.517-.048.025-.089.049-.075.025-.082.023-.083.011-.081.007-.081-.007-.082-.011-.083-.023-.073-.025-.091-.049-.046-.025-5.455-3.679v7.517l5.904 3.982 6.652-4.485zM6.063 0h-2.886l-3.177 2.145v1.943l5.457-3.679z" fill="none"/><path d="M97.695 123.592l-6.538 4.408h3.167l.277-.188-.002-.002c1.546-1.041 3.16-2.131 3.551-2.395l3.831 2.584h3.161l-6.537-4.408c-.277-.186-.632-.186-.91.001zM125.916 105.056c0 .307.147.593.394.757l1.69 1.14v-3.795l-1.69 1.14c-.247.164-.394.45-.394.758zM99.818 118.653l-.117-.06-.063-.021-.114-.026-.065-.009-.126.002-.056.004-.172.045-.006.002-.157.083-7.151 4.823-.002.001-6.678 4.503h3.159l4.43-2.986h.002l6.7-4.52.658.448 10.466 7.058h3.161l-13.832-9.327-.037-.02zM34.56 123.496l-6.679 4.504h3.159l3.976-2.681 3.975 2.681h3.16l-6.679-4.504c-.278-.187-.634-.187-.912 0zM125.916 62.385c0 .308.147.593.394.758l1.69 1.14v-3.795l-1.69 1.14c-.247.165-.394.451-.394.757zM119.155 95.395l-6.698 4.518-12.727-8.583 6.029-4.066c.246-.166.393-.451.393-.759s-.146-.593-.393-.758l-7.154-4.823c-.277-.188-.633-.188-.91 0l-7.155 4.823-7.153 4.825-5.904 3.98-14.308 9.648c-.244.164-.393.449-.393.758 0 .307.149.592.393.758l7.153 4.824c.279.188.635.188.912 0 0 0 5.898-3.977 6.699-4.518.799.541 6.696 4.518 6.696 4.518l-.091-.104c.234.199.611.453 1.209.855l4.911 3.314-6.029 4.065-7.154 4.824-6.678 4.506h3.161l4.43-2.986 7.153-4.825 7.155-4.823c.395-.267.511-.823.259-1.242-.08-.133-.188-.231-.311-.302l.052.026-7.155-4.823.092.104c-.234-.2-.611-.455-1.209-.857l-6.035-4.07c-.279-.188-.634-.188-.912 0l-6.697 4.516-5.574-3.758c1.598-1.076 11.928-8.043 12.729-8.583.723.488 38.503 25.966 46.894 31.624h3.16l-48.466-32.683 4.322-2.917 13.844 9.334-.092-.104c.234.198.609.454 1.209.856l13.188 8.896-.09-.104c.235.199.61.455 1.209.857l13.189 8.895-.092-.104c.235.199.61.455 1.209.857l.574.387v-2.13l-.78-.526.091.104c-.234-.199-.61-.455-1.208-.857l-13.189-8.895.091.104c-.234-.199-.611-.455-1.209-.857l-13.189-8.894.092.104c-.234-.2-.611-.454-1.209-.857 0 0-10.027-6.763-12.059-8.132l9.172-6.19-.002-.003 3.551-2.394c.665.447 4.098 2.762 5.574 3.757-1.598 1.077-6.029 4.067-6.029 4.067l-.01.008-.152.135-.029.038-.069.093-.017.035-.03.063-.049.135-.015.058-.02.165-.004.029.002.006.029.221.016.051.076.18.011.025.008.012.06.079.049.062.055.049.078.064.012.008 14.303 9.647.048.024.09.049.075.025.082.023.082.011.08.006.081-.006.082-.011.081-.023.075-.025.09-.048.047-.025 7.154-4.824 7.153-4.825.78-.525v-2.129l-1.691 1.141-7.154 4.822zM126.309 100.22l-7.153 4.825-.011.008-.083.068-.05.045-.055.068-.053.072-.01.013-.028.06-.039.082-.027.09-.02.075-.012.097-.005.076.006.092.01.082.023.09.023.077.044.093.024.053.009.012.06.078.049.061.055.05.078.065.01.008 8.846 5.966v-2.131l-6.81-4.593 6.028-4.065h.002l.78-.527v-2.131l-1.691 1.141zM119.155 52.727l-6.698 4.517-12.727-8.584 6.029-4.067c.246-.165.393-.451.393-.757 0-.307-.146-.593-.393-.759l-7.154-4.825c-.277-.187-.633-.187-.91 0l-7.155 4.825-7.153 4.825-5.904 3.981-14.308 9.647c-.244.166-.393.452-.393.759s.149.592.393.757l7.153 4.825c.279.188.635.188.912 0l6.699-4.517c.799.54 6.696 4.517 6.696 4.517l-.091-.104c.234.2.611.454 1.209.857l4.911 3.313-6.029 4.065-7.154 4.825-7.153 4.823-7.154 4.823-7.153 4.824-6.698 4.517-12.727-8.582 6.03-4.066c.245-.165.393-.452.393-.758s-.148-.593-.393-.758l-7.154-4.825c-.278-.187-.634-.187-.912 0l-7.154 4.825-7.154 4.823c-.245.165-.393.451-.393.759 0 .307.148.591.393.757l14.307 9.648-.091-.103c.235.198.612.453 1.209.856l13.188 8.895-.091-.104c.234.199.611.454 1.209.857l13.188 8.894-.091-.104c.235.198.612.454 1.209.858l6.035 4.07c.279.188.635.188.914 0l7.151-4.825h.001l7.154-4.824c.244-.165.393-.45.393-.757 0-.308-.148-.594-.393-.758l-7.154-4.824c-.277-.188-.634-.188-.912 0l-6.697 4.517-12.727-8.583 6.029-4.065.001-.001 7.152-4.824h.002l7.152-4.822.001-.002 7.153-4.822v-.001l7.153-4.823h.002l6.7-4.519.658.448 12.064 8.136-6.029 4.065c-.244.165-.393.451-.393.759 0 .307.148.591.393.757l7.153 4.824c.278.188.636.188.913 0l7.15-4.822.003-.002 4.187-2.822.004.004 2.498-1.682v-2.152l-48.471-32.687 4.322-2.917 13.844 9.334-.092-.104c.234.2.609.455 1.209.857l13.188 8.894-.09-.103c.235.2.61.454 1.209.858l13.189 8.893-.092-.104c.235.2.61.455 1.209.857l.575.389v-2.131l-.78-.526.091.104c-.234-.199-.61-.453-1.208-.857l-13.189-8.894.091.103c-.234-.198-.611-.453-1.209-.856l-13.191-8.896.092.103c-.234-.199-.611-.455-1.209-.856 0 0-10.027-6.762-12.059-8.131l9.172-6.191-.001-.004 3.551-2.394 5.574 3.759-6.029 4.066-.01.007-.152.135-.029.039-.069.093-.017.036-.03.061-.049.135-.015.059-.02.165-.004.029.002.007.029.22.016.049.076.181.011.025.008.012.06.08.049.061.055.049.078.064.012.01 14.303 9.647.048.024.09.048.075.026.082.024.082.01.08.006.081-.006.082-.01.081-.024.075-.026.09-.047.047-.025 7.154-4.825 7.153-4.823.78-.525v-2.131l-1.691 1.141-7.154 4.824zm7.271 33.678l-1.985 1.339.005.006c-1.848 1.244-4.023 2.713-4.039 2.724l-.004.001-6.697 4.518-5.573-3.759 6.03-4.066.009-.008.154-.136.022-.031.074-.101.018-.036.026-.055.052-.143.014-.053.021-.173.002-.023v-.006l-.028-.224-.015-.044-.08-.188-.01-.021-.007-.009-.067-.091-.04-.05-.066-.06-.065-.055-.013-.011-14.307-9.648-.037-.019-.117-.06-.063-.021-.114-.027-.065-.009-.126.002-.056.004-.172.046-.006.001-.157.083-7.151 4.823-.002.002-7.152 4.823h-.001l-7.153 4.822-.002.001-7.152 4.824-7.153 4.824h-.001l-7.153 4.824-.01.008-.084.07-.049.044-.053.067-.054.072-.01.014-.029.061-.039.082-.027.09-.019.074-.012.097-.005.076.006.093.01.081.023.09.023.077.044.093.024.052.009.012.059.08.049.06.055.051.078.063.01.01 14.306 9.647.047.024.091.049.075.025.081.023.082.012.081.006.081-.006.081-.012.082-.023.075-.025.089-.049.049-.024s5.896-3.978 6.697-4.517l5.572 3.76c-1.594 1.074-6.016 4.057-6.028 4.065h-.001l-6.697 4.517-6.698-4.517.091.103c-.234-.198-.611-.453-1.208-.856l-13.189-8.894.091.104c-.234-.199-.611-.455-1.208-.857l-13.189-8.895.09.104c-.234-.199-.61-.455-1.208-.857 0 0-10.052-6.777-12.065-8.136l6.03-4.066 6.697-4.517c.665.449 4.097 2.764 5.574 3.759l-6.03 4.065-.009.008-.153.136-.029.038-.07.094-.017.035-.029.061-.048.136-.016.059-.019.165-.003.028v.008l.03.22.015.05.077.179.011.025.009.012.06.08.048.061.056.05.077.065.011.008 14.307 9.648.047.025.089.049.075.024.083.024.082.01.081.006.081-.006.083-.01.081-.024.075-.024.09-.049.047-.025 7.154-4.824 7.154-4.824 7.154-4.823 7.153-4.823 7.153-4.824 7.155-4.824c.395-.268.511-.822.259-1.24-.08-.134-.188-.232-.311-.304l.052.028-7.155-4.824.092.104c-.234-.199-.611-.455-1.209-.857l-6.035-4.071c-.279-.187-.634-.187-.912 0 0 0-5.898 3.977-6.697 4.517l-5.574-3.758c1.598-1.078 11.928-8.043 12.729-8.583.789.536 46.792 31.559 48.478 32.695zM125.916 19.717c0 .306.147.592.394.757l1.69 1.14v-3.795l-1.69 1.14c-.247.165-.394.45-.394.758zM126.309 57.55l-7.153 4.823-.011.009-.083.07-.05.044-.055.067-.053.072-.01.014-.028.061-.039.082-.027.09-.02.075-.012.097-.005.077.006.093.01.08.023.09.023.077.044.093.024.052.009.012.06.08.049.061.055.049.078.065.01.009 8.846 5.962v-2.131l-6.81-4.592 6.028-4.065.002-.001.78-.524v-2.131l-1.691 1.14zM97.695 5.232l-.01.008-.152.135-.029.038-.069.095-.017.035-.03.061-.049.135-.015.058-.02.166-.004.029.002.007.029.22.016.049.076.18.011.025.008.012.06.079.049.06.055.051.078.064.012.01 14.304 9.647.048.026.09.049.075.024.082.024.082.011.08.006.081-.006.082-.011.081-.024.075-.024.09-.049.047-.026 7.154-4.824 7.153-4.823.78-.526v-2.131l-1.691 1.14-7.153 4.824-6.698 4.516-12.728-8.582 6.029-4.065c.246-.165.393-.452.393-.758 0-.307-.146-.594-.393-.758l-.604-.409h-3.161l1.73 1.167-6.029 4.065zM126.309 14.88l-7.153 4.825-.011.007-.083.071-.05.044-.055.068-.053.071-.01.014-.028.061-.039.082-.027.091-.02.074-.012.097-.005.076.006.092.01.082.023.09.023.076.044.094.024.052.009.011.06.08.049.06.055.051.078.064.01.008 8.846 5.965v-2.131l-6.81-4.592 6.028-4.065.002-.001.78-.527v-2.13l-1.691 1.14zM83.387 5.232l-5.904 3.981-14.308 9.648c-.244.165-.393.451-.393.758 0 .308.149.593.393.758l7.153 4.823c.279.188.635.188.912 0 0 0 5.898-3.977 6.699-4.515l6.696 4.515-.091-.103c.234.199.611.454 1.209.856l4.911 3.312-6.029 4.066-7.154 4.825-7.153 4.823-7.154 4.824-7.153 4.825-6.698 4.516-12.727-8.583 6.03-4.066c.245-.164.393-.45.393-.757 0-.308-.148-.593-.393-.758l-7.154-4.823c-.278-.188-.634-.188-.912 0l-7.154 4.823-7.154 4.824c-.245.166-.393.452-.393.758 0 .307.148.593.393.758l14.307 9.648-.091-.104c.235.2.612.456 1.209.858l13.188 8.894-.091-.104c.234.199.611.454 1.209.857l13.188 8.895-.091-.104c.235.199.612.454 1.209.857l6.035 4.069c.279.188.635.188.914 0l7.151-4.823h.001l7.154-4.824c.244-.166.393-.451.393-.758 0-.309-.148-.593-.393-.758l-7.154-4.823c-.277-.189-.634-.189-.912 0l-6.697 4.517-12.727-8.584 6.029-4.064.001-.001 7.152-4.824h.002l7.152-4.825h.001l7.153-4.822v-.002l7.153-4.822.002-.001 6.7-4.518.658.448 12.064 8.136-6.029 4.065c-.244.166-.393.452-.393.758 0 .307.148.593.393.758l7.153 4.825c.278.187.636.187.913 0l7.15-4.824.003-.001 4.187-2.823.004.005 2.498-1.683v-2.153l-48.471-32.686 4.322-2.918 13.844 9.334-.092-.102c.234.199.609.454 1.209.857l13.188 8.893-.09-.103c.235.199.61.454 1.209.856l13.189 8.895-.092-.104c.235.199.61.455 1.209.857l.575.389v-2.13l-.78-.526.091.103c-.234-.199-.61-.454-1.208-.856l-13.189-8.894.091.104c-.234-.2-.611-.455-1.209-.857l-13.191-8.897.092.104c-.234-.199-.611-.455-1.209-.858 0 0-10.027-6.762-12.059-8.131l8.882-5.995h-3.165l-.606.408-7.153 4.824zm43.039 38.503l-1.985 1.339.005.006c-1.848 1.245-4.023 2.712-4.039 2.724l-.004.001-6.697 4.517-5.573-3.759 6.03-4.066.009-.006.154-.138.022-.03.074-.1.018-.038.026-.056.052-.141.014-.053.021-.173.002-.024v-.006l-.028-.222-.015-.045-.08-.187-.01-.021-.007-.011-.067-.089-.04-.051-.066-.059-.065-.055-.013-.011-14.307-9.648-.037-.019-.117-.059-.063-.023-.114-.026-.065-.009-.126.002-.056.004-.172.046h-.006v.001l-.157.083-7.151 4.824-.002.001-7.152 4.822-.001.001-7.153 4.824h-.002l-7.152 4.824v.001l-7.153 4.823-.001.001-7.153 4.824-.01.008-.084.07-.049.044-.053.068-.054.072-.01.013-.029.062-.039.08-.027.09-.019.076-.012.096-.005.077.006.093.01.081.023.089.023.077.044.094.024.053.009.01.059.079.049.062.055.048.078.065.01.01 14.306 9.648.047.024.091.048.075.027.081.023.082.009.081.007.081-.007.081-.009.082-.023.075-.027.089-.047.049-.025s5.896-3.977 6.697-4.516l5.572 3.758c-1.594 1.076-6.016 4.057-6.028 4.064l-.001.002-6.697 4.517c-.799-.54-6.698-4.517-6.698-4.517l.091.104c-.234-.2-.611-.455-1.208-.857l-13.189-8.894.091.102c-.234-.198-.611-.454-1.208-.856l-13.189-8.894.09.103c-.234-.199-.61-.455-1.208-.857 0 0-10.052-6.778-12.065-8.137l6.03-4.066 6.697-4.516 5.574 3.759-6.03 4.065-.009.009-.153.135-.029.038-.07.094-.017.035-.029.061-.048.136-.016.058-.019.165-.003.029v.008l.03.219.015.049.077.18.011.025.009.011.06.08.048.061.056.05.077.064.011.009 14.307 9.648.047.024.089.049.075.025.083.024.082.01.081.005.081-.005.083-.01.081-.024.075-.025.09-.048.047-.025 7.154-4.824 7.154-4.825 7.154-4.824 7.153-4.823 7.153-4.825 7.155-4.823c.395-.267.511-.823.259-1.242-.08-.132-.188-.231-.311-.302l.052.028-7.155-4.825.092.104c-.234-.2-.611-.454-1.209-.856l-6.035-4.071c-.279-.187-.634-.187-.912 0 0 0-5.898 3.977-6.697 4.517l-5.574-3.759 12.729-8.583c.789.538 46.792 31.561 48.478 32.697zM20.252 5.136c-.245.166-.393.451-.393.759 0 .306.148.592.393.757l14.308 9.648-.091-.104c.235.199.612.454 1.209.857l13.188 8.894-.091-.103c.234.199.611.455 1.209.857l13.188 8.894-.091-.103c.235.2.612.455 1.209.857l6.035 4.069c.279.188.635.188.914 0l7.151-4.823h.001l7.154-4.825c.244-.165.393-.451.393-.757 0-.307-.148-.592-.393-.758l-7.154-4.824c-.277-.188-.634-.188-.912 0l-6.697 4.517-12.727-8.583 6.029-4.066h.001l7.152-4.824h.002l7.152-4.824.001-.001 7.153-4.823v-.001l2.713-1.826h-3.16l-.461.312h-.001l-7.153 4.824h-.002l-7.152 4.823v.001l-7.153 4.824h-.001l-7.153 4.825-.01.008-.084.069-.049.045-.053.068-.054.072-.01.013-.029.06-.039.083-.027.09-.019.075-.012.096-.005.077.006.093.01.081.023.09.023.077.044.093.024.052.009.012.059.08.049.06.055.05.078.064.01.01 14.306 9.647.047.025.091.048.075.025.081.023.082.012.081.006.081-.006.081-.012.082-.023.075-.025.089-.047.049-.026s5.896-3.977 6.697-4.516c.665.45 4.097 2.764 5.572 3.759-1.594 1.075-6.016 4.057-6.028 4.066h-.001l-6.697 4.516-6.698-4.516.091.104c-.234-.199-.611-.455-1.208-.858l-13.189-8.893.091.103c-.234-.2-.611-.455-1.208-.858l-13.189-8.894.09.104c-.234-.199-.61-.455-1.208-.857 0 0-10.052-6.777-12.065-8.135 1.597-1.078 6.03-4.067 6.03-4.067l2.71-1.828h-3.161l-.462.312-7.156 4.82zM106.096 5.136c-.244.166-.393.451-.393.759 0 .306.148.592.393.757l7.153 4.825c.278.188.636.188.913 0l7.15-4.823.003-.002 4.187-2.823.004.005 2.494-1.685v-2.149h-3.154l1.58 1.065-1.985 1.339.005.006c-1.848 1.246-4.023 2.713-4.039 2.725l-.004.001-6.697 4.517-5.573-3.758c1.597-1.078 6.03-4.067 6.03-4.067l.009-.007.154-.136.022-.031.074-.1.018-.037.026-.056.052-.142.014-.053.021-.173.002-.024v-.006l-.028-.222-.015-.045-.08-.187-.01-.022-.007-.01-.067-.09-.04-.05-.066-.059-.065-.055-.013-.011-.465-.312h-3.159l1.585 1.069-6.029 4.067zM34.56 5.136l-.009.009-.153.135-.029.038-.07.094-.017.035-.029.062-.048.135-.016.058-.019.165-.003.029v.008l.03.219.015.051.077.179.011.026.009.012.06.079.048.061.056.049.077.065.011.009 14.305 9.646.047.024.089.048.075.026.083.023.082.011.081.006.081-.006.083-.011.081-.023.075-.026.09-.048.047-.024 7.154-4.824 7.154-4.825 7.154-4.824 2.709-1.827h-3.16l-.463.312-7.154 4.824-7.153 4.824-6.698 4.518-12.727-8.583 6.03-4.067c.245-.165.393-.451.393-.758s-.148-.592-.393-.757l-.462-.313h-3.16l1.586 1.069-6.03 4.067zM6.37 110.637s5.897-3.977 6.698-4.516l6.697 4.516-.09-.104c.234.2.61.455 1.208.857l4.912 3.313-6.03 4.066-7.153 4.824-6.538 4.407h3.162l4.287-2.891 7.154-4.824 7.154-4.824c.396-.267.512-.822.26-1.24-.08-.133-.189-.232-.311-.303l.051.027-7.154-4.824.091.104c-.235-.199-.611-.454-1.209-.857l-6.035-4.07c-.279-.188-.635-.188-.913 0l-6.697 4.517-5.574-3.758c1.598-1.077 11.928-8.043 12.728-8.583.719.485 38.088 25.685 46.75 31.527h3.163l-49.457-33.353c-.278-.187-.635-.187-.913 0l-12.611 8.505v3.804l5.458 3.68c.278.187.634.187.912 0zM34.948 118.75l-.118-.059-.062-.022-.115-.027-.065-.008-.126.002-.056.004-.172.045-.005.002h-.001l-.157.083-7.153 4.822-.001.002-6.535 4.406h3.161l4.286-2.891h.002l6.7-4.519.659.448 10.321 6.962h3.163l-13.69-9.23-.036-.02zM6.369 96.911l7.152-4.823.002-.002 7.152-4.822h.001l7.152-4.823.002-.001 6.7-4.519.659.448 12.065 8.136-6.03 4.067c-.245.164-.393.45-.393.758 0 .306.147.592.393.756l7.153 4.825c.278.188.635.188.913 0l7.151-4.823.003-.002 7.153-4.822c.246-.164.393-.45.393-.758 0-.309-.147-.594-.393-.759l-50.073-33.767c-.278-.188-.635-.188-.913 0l-12.611 8.504v3.804l5.458 3.68c.278.187.634.187.912 0 0 0 5.897-3.978 6.698-4.516l6.697 4.516-.09-.103c.234.197.61.453 1.208.856l4.912 3.312-6.03 4.066-7.153 4.824-7.154 4.823-5.458 3.682v2.129l6.369-4.293 7.154-4.824 7.154-4.822 7.154-4.824c.396-.268.512-.824.26-1.242-.08-.133-.189-.231-.311-.303l.051.027-7.154-4.823.091.103c-.235-.199-.611-.453-1.209-.857l-6.035-4.07c-.279-.186-.635-.186-.913 0 0 0-5.897 3.978-6.697 4.516l-5.574-3.758c1.598-1.077 11.928-8.042 12.728-8.582.799.54 46.896 31.625 48.494 32.703-1.592 1.073-6.003 4.047-6.027 4.064l-.003.002-6.697 4.516c-.666-.449-4.098-2.764-5.574-3.758l6.03-4.066.009-.008.154-.137.023-.031.075-.1.018-.037.026-.056.052-.142.014-.053.02-.172.003-.025-.001-.006-.03-.222-.014-.046-.08-.186-.01-.022-.007-.01-.067-.091-.04-.05-.066-.06-.067-.055-.012-.011-14.308-9.646-.036-.018-.118-.062-.062-.021-.115-.027-.065-.008h-.126l-.056.006-.172.044-.005.002h-.001l-.157.083-7.153 4.823-.001.001-7.152 4.823h-.001l-7.152 4.823-.002.002-7.152 4.822h-.002l-5.455 3.683v2.131l6.369-4.296zM.013 128h3.177l3.176-2.144.002-.002 7.153-4.823h.001l7.154-4.824c.244-.164.392-.451.392-.758s-.148-.592-.392-.758l-7.154-4.824c-.278-.188-.634-.188-.913 0l-6.697 4.518-5.912-3.987v2.13l5.456 3.679.046.025.091.049.073.025.083.022.082.011.081.007.081-.007.083-.011.082-.022.075-.025.089-.049.048-.025s5.897-3.978 6.697-4.516l5.574 3.758c-1.595 1.076-6.017 4.059-6.029 4.066h-.002l-.048.032-.005-.006-6.652 4.485-5.904-3.982v2.133l4.324 2.914-4.312 2.909zM6.368 83.186l7.153-4.823.001-.001 7.154-4.824c.244-.164.392-.45.392-.758 0-.307-.148-.593-.392-.758l-7.154-4.823c-.278-.188-.634-.188-.913 0l-6.697 4.517-5.912-3.988v2.131l5.456 3.679.046.025.091.049.073.025.083.023.082.01.081.006.081-.006.083-.01.082-.023.075-.025.089-.047.048-.027 6.697-4.516 5.574 3.758-6.029 4.066h-.002l-.048.033-.005-.006-6.652 4.484c-.636-.43-4.278-2.885-5.904-3.98v2.13l4.324 2.916-4.325 2.917v2.145l6.366-4.298.002-.001zM6.369 54.241l7.152-4.823h.002l7.152-4.824.001-.001 7.152-4.822h.002l6.7-4.519.659.448 12.065 8.136-6.03 4.066c-.245.165-.393.45-.393.758 0 .307.147.593.393.758l7.153 4.823c.278.188.635.188.913 0l7.151-4.822.003-.001 7.153-4.825c.246-.165.393-.45.393-.757s-.147-.593-.393-.758l-50.073-33.767c-.278-.188-.635-.188-.913 0l-12.611 8.503v3.804l5.458 3.68c.278.188.634.188.912 0 0 0 5.897-3.978 6.698-4.517l6.697 4.517-.09-.103c.234.199.61.454 1.208.856l4.912 3.313-6.03 4.067-7.153 4.823-7.154 4.825-5.458 3.678v2.131l6.369-4.295 7.154-4.822 7.154-4.825 7.154-4.824c.396-.267.512-.823.26-1.241-.08-.133-.189-.233-.311-.303l.051.027-7.154-4.825.091.104c-.235-.199-.611-.454-1.209-.856l-6.035-4.071c-.279-.187-.635-.187-.913 0l-6.697 4.517c-.666-.45-4.097-2.763-5.574-3.758 1.598-1.078 11.928-8.044 12.728-8.583.799.539 46.896 31.626 48.494 32.703l-6.027 4.064-.003.002-6.697 4.516-5.574-3.758 6.03-4.067.009-.008.154-.136.023-.031.075-.1.018-.038.026-.054.052-.143.014-.052.02-.172.003-.024-.001-.006-.03-.222-.014-.046-.08-.187-.01-.021-.007-.011-.067-.09-.04-.049-.066-.06-.067-.054-.012-.011-14.308-9.648-.036-.02-.118-.06-.062-.021-.115-.027-.065-.008-.126.002-.056.004-.172.044-.005.002h-.001l-.157.083-7.153 4.822-.001.001-7.152 4.824-.001.001-7.152 4.823-.002.001-7.152 4.823-.002.001-5.455 3.681v2.131l6.369-4.296zM9.224 0h-3.161l-.606.409-5.457 3.679v2.131l6.369-4.294zM6.368 40.516l7.153-4.824h.001l7.154-4.824c.244-.165.392-.451.392-.758s-.148-.592-.392-.758l-7.154-4.823c-.278-.188-.634-.188-.913 0l-6.697 4.516-5.912-3.986v2.13l5.456 3.679.046.025.091.049.073.025.083.023.082.011.081.007.081-.007.083-.011.082-.023.075-.025.089-.049.048-.025 6.697-4.517 5.574 3.759c-1.595 1.076-6.017 4.058-6.029 4.065l-.002.001-.048.032-.005-.005-6.652 4.485-5.905-3.982v2.131l4.324 2.917-4.324 2.915v2.145l6.366-4.297.002-.001zM41.225 5.232c-.245.165-.393.451-.393.758 0 .308.147.592.393.758l7.153 4.823c.278.189.635.189.913 0l7.151-4.822.003-.001 7.153-4.824c.246-.165.393-.451.393-.758s-.147-.593-.393-.757l-.607-.409h-3.16l1.729 1.167-6.027 4.064-.003.002-6.697 4.518-5.574-3.76 6.03-4.065.009-.008.154-.136.023-.031.075-.101.018-.037.026-.055.052-.141.014-.053.02-.173.003-.024-.001-.006-.03-.222-.014-.045-.08-.187-.01-.022-.007-.009-.067-.091-.04-.049-.066-.06-.067-.056-.012-.009-.605-.411h-3.159l1.729 1.167-6.029 4.065zM6.369 11.572l7.152-4.823h.002l7.152-4.823.001-.001 2.854-1.925h-3.16l-.605.408-.001.001-7.152 4.822-.002.001-7.152 4.824h-.002l-5.456 3.681v2.129l6.368-4.293zM0 0v2.145l3.177-2.145z"/></svg>
