<?xml version="1.0" encoding="utf-8"?>
<!-- Generator: Adobe Illustrator 15.1.0, SVG Export Plug-In . SVG Version: 6.00 Build 0)  -->
<!DOCTYPE svg PUBLIC "-//W3C//DTD SVG 1.1//EN" "http://www.w3.org/Graphics/SVG/1.1/DTD/svg11.dtd">
<svg version="1.1" id="レイヤー_1" xmlns="http://www.w3.org/2000/svg" xmlns:xlink="http://www.w3.org/1999/xlink" x="0px"
	 y="0px" width="90px" height="90px" viewBox="0 0 90 90" enable-background="new 0 0 90 90" xml:space="preserve">
<path id="background" fill="#FF9900" d="M3.6,0h82.8c2,0,3.6,1.6,3.6,3.6v82.8c0,2-1.6,3.6-3.6,3.6H3.6c-2,0-3.6-1.6-3.6-3.6V3.6
	C0,1.6,1.6,0,3.6,0z"/>
<path id="top-left" fill="#FFB13B" d="M3.6,0h37.8c2,0,3.6,1.6,3.6,3.6v37.8c0,2-1.6,3.6-3.6,3.6H3.6c-2,0-3.6-1.6-3.6-3.6V3.6
	C0,1.6,1.6,0,3.6,0z"/>
<path id="bottom-right" fill="#DE8500" d="M48.6,45h37.8c2,0,3.6,1.6,3.6,3.6v37.8c0,2-1.6,3.6-3.6,3.6H48.6c-2,0-3.6-1.6-3.6-3.6
	V48.6C45,46.6,46.6,45,48.6,45z"/>
<g id="circles">
	<circle id="n" fill="#FF9900" cx="45" cy="16.6" r="16.6"/>
	<circle id="ne" fill="#FF9900" cx="65.2" cy="24.8" r="16.6"/>
	<path id="e" fill="#FF9900" d="M73.4,28.4C82.6,28.4,90,35.9,90,45s-7.4,16.6-16.6,16.6c-9.1,0-16.6-7.4-16.6-16.6
		S64.3,28.4,73.4,28.4z"/>
	<circle id="se" fill="#FF9900" cx="65.2" cy="65.2" r="16.6"/>
	<path id="s" fill="#FF9900" d="M45,56.9c9.1,0,16.6,7.4,16.6,16.6C61.6,82.6,54.1,90,45,90s-16.6-7.4-16.6-16.6
		C28.4,64.3,35.9,56.9,45,56.9z"/>
	<circle id="sw" fill="#FF9900" cx="24.8" cy="65.2" r="16.6"/>
	<circle id="w" fill="#FF9900" cx="16.6" cy="45" r="16.6"/>
	<circle id="nw" fill="#FF9900" cx="24.8" cy="24.8" r="16.6"/>
</g>
<g id="stars">
	<path id="black-star" d="M56.8,16.5C56.8,10,51.5,4.8,45,4.8c-6.5,0-11.8,5.3-11.8,11.8c-4.6-4.6-12.1-4.6-16.6,0
		c-4.6,4.6-4.6,12.1,0,16.7C10,33.2,4.8,38.5,4.8,45c0,6.5,5.3,11.8,11.8,11.8c-4.6,4.6-4.6,12.1,0,16.7c4.6,4.6,12.1,4.6,16.6,0
		c0,6.5,5.3,11.8,11.8,11.8c6.5,0,11.8-5.3,11.8-11.8c4.6,4.6,12.1,4.6,16.7,0c4.6-4.6,4.6-12.1,0-16.7c6.5,0,11.8-5.3,11.8-11.8
		c0-6.5-5.3-11.8-11.8-11.8c4.6-4.6,4.6-12.1,0-16.7C68.9,11.9,61.4,11.9,56.8,16.5z"/>
	<path id="white-star" fill="#FFFFFF" d="M49.5,21.1v13l9.2-9.2c0-1.6,0.6-3.3,1.9-4.5c2.5-2.5,6.5-2.5,9,0c2.5,2.5,2.5,6.5,0,9
		c-1.2,1.2-2.9,1.9-4.5,1.9l-9.2,9.2h13c1.2-1.2,2.7-1.9,4.5-1.9c3.5,0,6.4,2.9,6.4,6.4c0,3.5-2.9,6.4-6.4,6.4
		c-1.8,0-3.3-0.7-4.5-1.9h-13l9.2,9.2c1.6,0,3.3,0.6,4.5,1.9c2.5,2.5,2.5,6.5,0,9c-2.5,2.5-6.5,2.5-9,0c-1.2-1.2-1.9-2.9-1.9-4.5
		l-9.2-9.2v13.1c1.1,1.1,1.9,2.7,1.9,4.5c0,3.5-2.9,6.4-6.4,6.4s-6.4-2.9-6.4-6.4c0-1.8,0.7-3.4,1.9-4.5V55.9l-9.2,9.2
		c0,1.6-0.6,3.3-1.9,4.5c-2.5,2.5-6.5,2.5-9,0c-2.5-2.5-2.5-6.5,0-9c1.2-1.2,2.9-1.9,4.5-1.9l9.2-9.2h-13c-1.2,1.1-2.8,1.9-4.5,1.9
		c-3.5,0-6.4-2.9-6.4-6.4c0-3.5,2.9-6.4,6.4-6.4c1.7,0,3.4,0.7,4.5,1.9h13l-9.2-9.2c-1.6,0-3.3-0.6-4.5-1.9c-2.5-2.5-2.5-6.5,0-9
		c2.5-2.5,6.5-2.5,9,0c1.2,1.2,1.9,2.9,1.9,4.5l9.2,9.2v-13c-1.1-1.2-1.9-2.7-1.9-4.5c0-3.5,2.9-6.4,6.4-6.4s6.4,2.8,6.4,6.4
		C51.4,18.3,50.6,19.9,49.5,21.1z"/>
</g>
<g id="svg-textbox">
	<path id="text-backdrop" d="M4.8,45h80.4v36c0,3-1.5,4.5-4.5,4.5H9.3c-3,0-4.5-1.5-4.5-4.5V45z"/>
	<path id="shine" fill="#3F3F3F" d="M13.2,48.8h64.3c2.6,0,4.8,2.1,4.8,4.8v16.1c-24.8-3.1-49.4-7.3-73.8-6.9v-9.2
		C8.4,50.9,10.6,48.8,13.2,48.8L13.2,48.8z"/>
	<g id="svg-text">
		<title>SVG</title>
		<path id="S" fill="#FFFFFF" stroke="#000000" stroke-width="0.5035" d="M16.5,65.6c-1.9-1.9-3.1-4.5-3.1-7.4
			c0-5.8,4.7-10.5,10.5-10.5c5.8,0,10.5,4.7,10.5,10.5h-6.1c0-2.4-2-4.4-4.4-4.4c-2.4,0-4.4,1.9-4.4,4.4c0,1.2,0.5,2.3,1.3,3.1l0,0
			c0.8,0.8,1.9,1.3,3.1,1.3v0c2.9,0,5.5,1.2,7.4,3.1l0,0c1.9,1.9,3.1,4.5,3.1,7.4c0,5.8-4.7,10.5-10.5,10.5
			c-5.8,0-10.5-4.7-10.5-10.5h6.1c0,2.4,2,4.4,4.4,4.4c2.4,0,4.4-1.9,4.4-4.4c0-1.2-0.5-2.3-1.3-3.1l0,0c-0.8-0.8-1.9-1.3-3.1-1.3
			l0,0C21,68.7,18.4,67.5,16.5,65.6L16.5,65.6L16.5,65.6z"/>
		<polygon id="V" fill="#FFFFFF" stroke="#000000" stroke-width="0.5035" points="55.4,47.7 48,83.6 41.8,83.6 34.4,47.7 40.6,47.7 
			44.9,68.7 49.3,47.7 		"/>
		<path id="G" fill="#FFFFFF" stroke="#000000" stroke-width="0.5035" d="M65.9,62.6h10.5v10.5l0,0c0,5.8-4.7,10.5-10.5,10.5
			s-10.5-4.7-10.5-10.5l0,0V58.2h0c0-5.8,4.7-10.5,10.5-10.5c5.8,0,10.5,4.7,10.5,10.5h-6.2c0-2.4-1.9-4.4-4.4-4.4
			c-2.4,0-4.3,1.9-4.3,4.4v14.8l0,0c0,2.4,2,4.4,4.3,4.4c2.4,0,4.4-1.9,4.4-4.3v0v-4.3h-4.4V62.6L65.9,62.6z"/>
	</g>
</g>
</svg>
